/* XPM */
static char *e26caf0f8829416ab69d5b2a1f071e1cfwpeZmHOEB4tYTme[] = {
/* columns rows colors chars-per-pixel */
"64 64 77 1 ",
"  c #010101",
". c #080707",
"X c #090807",
"o c #0C0A0A",
"O c #110E0E",
"+ c #13100F",
"@ c #161311",
"# c #1A1514",
"$ c #1D1817",
"% c #1F1A18",
"& c #221D1B",
"* c #28211F",
"= c #2B2422",
"- c #2F2825",
"; c #312926",
": c #342C29",
"> c #382F2C",
", c #3A312D",
"< c #3E3531",
"1 c #413633",
"2 c #453A36",
"3 c #473C38",
"4 c #493D39",
"5 c #4D413D",
"6 c #50443F",
"7 c #524541",
"8 c #564944",
"9 c #594B46",
"0 c #5D4E49",
"q c #5F504B",
"w c #62524D",
"e c #675651",
"r c #685752",
"t c #6C5B55",
"y c #6F5E58",
"u c #715D57",
"i c #715E59",
"p c #76635D",
"a c #78655F",
"s c #7A6760",
"d c #7D6963",
"f c #826D66",
"g c #846F68",
"h c #867169",
"j c #8B756D",
"k c #8E7770",
"l c #8F7971",
"z c #907770",
"x c #937C74",
"c c #977E77",
"v c #987F78",
"b c #978077",
"n c #988076",
"m c #978078",
"M c #998179",
"N c #9B837A",
"B c #9C847B",
"V c #9C847C",
"C c #A0877E",
"Z c #A1887F",
"A c #A38A81",
"S c #A48A81",
"D c #A68C83",
"F c #A78D84",
"G c #A98F85",
"H c #AA9086",
"J c #AC9187",
"K c #AB9188",
"L c #AC9288",
"P c #AF958B",
"I c #B1968B",
"U c #B3978E",
"Y c #B5988F",
"T c #B69A90",
"R c #B79B90",
"E c #B89C91",
"W c #B99D92",
/* pixels */
"                                                                ",
" %,::::::::,OX::::::::::::.+,::::::::::: @;=========-= &>::::>% ",
" 9njjjjjjjjn=&YHHHHHHHHHHI@:vjjjjjjjjjjj.7EGLLLLLLLHIC qcjjjhc7 ",
" 6jdffffffdj=%FVVVVVVVVVVA@-jdffffffffff.5LVVVVVVVVVSc 8hdffdj5 ",
" 7jffffffffj=%GCZZZZZZZZZD@-jfffffffffgf.5LVZZZZZZZCDc 9jffffj5 ",
" 7jffffffffj=%GVCCCCCCCCCS@-jfffffffffff.5LVCCCCCCCVSc 9jffffj5 ",
" 7lghhhhhhgz=&LSSSSSSSSSSG@;zghhhhhhhhhg.5IASSSSSSSAGM 9kghhgl6 ",
" 5hsddssddah*%BxcccxxccccM@-hsdddssdssds.3ZxcccxccccMj 7gsddsg3 ",
"      ..           ..            .             X                ",
" ,twwro#85667766668oO977778877787 %523332333231 2prrrrrerreeey< ",
" eEGLI#:cjjjjjjjjjc#=TKLLLLLLLLPG.<bjjjjjjjjjzf pTGHHHJJLLLLGEt ",
" wHBVD#-jdffffffffj#&FVVVVVVVVVZM.>jdffffffffgp tGBVVVVVVVVVBHw ",
" wLVZG#;jfffffffffj#&HVZZZZZZZCAB.,jfffffffffha yHVZZZZZZZZZVLw ",
" wHVVD#-jdffffffffj#&GVVVVVVVVVZM.>jdffffffffga tGVVVVVCVVVVVHw ",
" eTFHI#:chjjjjjjjhx#*YGHHHGGHHGLD.<cjjjjjjjjhjf pYGHHHGGHHHHGTt ",
" 3fpasO&rwwwwwwwwweO#dpaaaaapppsp =rqwwwwwwwww9 6dppppaaaaaapf3 ",
"                                                                ",
" 2syipyyiiys&$zhhhhhhjjjhl#*ayiiiyyiyyiy.2xhjjjhhhjhjd 3pyyytp1 ",
" 7zhjjjjjjhz=&IDFFFFFGGFDI%=zhjjjjjjjjhh.8YSFFFFFFFDHM 0zhjjhz7 ",
" 6jffffffffj=&GVCCCCCCCCVG$=jfffffffffff.6LVCCCCCCCVSx 8jffffj5 ",
" 7jffffffffj=&GCZZZZZZZZCG$=jfffffgfffgf.7LVZZZZZZZCSx 9jffffj5 ",
" 6jdffffffdj*%FVVVVVVVVVVD$=jdffffffffff.6HMVVVVVVVVAz 8hdffdj5 ",
" 9bjjjjjjjjM-&TLLLLLLLLLLT&;MjjjjjjjjjljX9EHLLLLLLLLIV qcjjjjc7 ",
" *2<11221112Oo867767766667oO2<1112211111 *957778877785 =312213* ",
" .oooo  X.X.oo.....  ooooo+Oooooo  Ooooo@oXXXoX  ooooo+o.X...X  ",
" qHBVF#;jfffffffffj#:HVCCCVVCCCCAO3LVCCVVVZCVAc.9kghhhfgggggfj7 ",
" wLVAG#;kfgggggggfj#:LCAAAAAAAAADO3PVAAAAAAAZDM 9jffffggggggfj7 ",
" wKVZF#;jfffffffffj#:LVZZZZZZZZZSo3LVZZZZZZZCAb 9jfffffffffffj7 ",
" wLVZG#;jfffffffffj#:LVZZZZZZZZZSo3LVZZZZZZZCSb 9jfffffffffffj7 ",
" wHVVF#-jdffffffffj#:GVVVVVVVVVVAo3LVVVVVVVVVAc 9jfffffffffffj6 ",
" eEGHU$:cjjjjjjjjjc#,TGHHHGGHHHHPO6EGHHHGHHHGPZ 0cjjjjjjjjjjhc8 ",
" #==== .*&&&=*&&&&& X-====;-===== o-====;-====* +&&&&&=&%%%%%&O ",
" O&&&&==***=. $####&&#####  &&&&&=*&&&&% .$####&$###$@ #======# ",
" wEFHHGGHHGY:#zjjjjhjjjjjz+;YGHHJGGHHGLA.2cjjjjhjjjjla pYGHHGTe ",
" 9KVVVVVVVVG-@hffffffffffhO-GVVVVVVVVVAM <jfffffffffhi yGVVVVHw ",
" 9LVZZZZZZVH;@jffffffffffjO-HVZZZZZZZCAM <jfffffffffhi yHVZZVLw ",
" 9LVCCCCCCVH;@jffffffffffjO-HVZZZZCCCVAM <jfffffffffhi yHVZZVKw ",
" 0PZAAAAAAZL;@jfgggggggggjO-LCAAAAAAAADV 1zfhhhhhhhgjp yLCAACLw ",
" 8FMMMMMVVBG;#hffffddffffh+-GVVVVMMMMMVc.<jdddddffffhu yLCAACPw ",
"      oo   .  X.XX.oo       oXXXooX            o        oXXXXX. ",
" ;8777o@2<1<1211112X@867777777775 #2<<<<11<<<1> :9777787777779; ",
" rEHLY$:Mjjjjjjjjjc#:EKLLLLLLLLIGo,Mjjjjjjjjjzf pEHLLLLLLLLLJEt ",
" wHMVD#-jdffffffffj#=GVVVVVVVVVCMX:jdffffffffgp tGBVVVVVVVVVBHw ",
" wLVZG#-jffffgffffj#-HVZZZZZZZZAVX:jfffffffffhp yHVZZZZZZZZZVLw ",
" wHVCG#-jfffffffffj#-GVVVVVVVVVZMX:jfffffffffhp tHVCCCCCCCCCVHw ",
" eUSFL#;chhhhjhhhjz#;YFGGGGGGGFGSX,xhjjjhjjjjkd iISFFFFFFFFFSUr ",
" 7cjjx@*prttrweeeet@&hsdddsfggghfX-prttteweewr0 9lhhhhhhjhhhhz7 ",
"                                                                ",
" 1fpaaaaaapf&Oewwwwwwwwwweo&fpaaaaaaapap.;rwwwwwwwwww7 7dpaapf3 ",
" wTFHHGGGGGY-#zhjjjjjjjjjlO-YGHHHGGHHHJDX2cjjjjjjjjhzp pYGHHGTe ",
" 9HVVVVVVVVG=@hffffffffffhO=GVVVVVVVVVZM.1jdffffffffhy tGVVVVHw ",
" 9LVZZZZZZVL=@jffffffffffhO=HVZZZZZZZZAB.1jfffffffffji yHVZZVLw ",
" 9HBVVVVVVVG=@jffffffffffhO=GVVVVVVVVVZM.1jdffffffffhy tGBVVBHw ",
" wEHLLLLLLHT;#cjjjjjjjjjjz+;THLLLLLLLLPGX2njjjjjjjjjzp pTGLLGEr ",
" ;w999988880@o533333222223.@q99999888898 &533333545451 2yerrei< ",
"            ..            .             .             X         ",
" 0AcmV#-hsddssdddsf#&Bxccczxccxcz.:fpsssppaaasy eZcmMmcbMMMMcA0 ",
" wPASH#;zghhhhhhhgj#*LASSSSSSSSFC.>zghhhhhhhhjs yPZSSSSSSSSSZPe ",
" wHVCF#;jfffffffffj#&GVCCCCCCCVAM.>jfffffffffhp tHVCCCCCCCCCVHw ",
" wLVZG#;jfffffffffj#&HVZZZZZZZCSB.>jfffffffffhp yHVZZZZZZZZZVLw ",
" wHBVD#-jdffffffffj#&GVVVVVVVVVAM.:jfffffffffhp tGBVVVCCVVVVBHw ",
" rEHLY#:Mhjjjjjjjjc#=YHHHHHHHHKLF.,cjjjjjjjjhzf pEJLLLLLLLLLJEt ",
" *2112o+>::::::::::oo:;;;;;;;;;;- O=*********=& =2111111111112* ",
"                                                                "
};
